<svg xmlns="http://www.w3.org/2000/svg" viewBox="0 0 188 372"><style>.x{fill:#212021}</style><path d="m251.3 30.6-58.9 180.9 154.1 111.8m0 5.7L187 213.3 247.9 26" class="x"/><path d="m245.5 22.3-62.4 191.8 163.4 118.5m0 5.4L178 215.8 242.4 18" class="x"/><path d="m239.8 14.1-66 202.6 172.7 125.2m0 5.1L169 218.3 236.8 10" class="x"/><path d="m234 5.8-69.5 213.5 182 131.9m0 4.8L160 220.8 231.2 2" class="x"/><path d="m228.3-1.4-73.1 224.3 191.3 138.6m0 4.5L151 224.3 225.7-5" class="x"/><path d="M223.4-9.7 147 225.5l200 145.4m0 4.1L143 226.8 220.9-13" class="x"/><path d="m217.6-17.9-80 246L347 380.2m0 3.8L134.9 230l-.9-.7L215.4-21" class="x"/><path d="m211.9-26.2-83.6 256.9L347 389.5m0 3.5L125 231.8 209.8-29" class="x"/><path d="M206.1-34.4 119 233.3l228 165.5m.8 2.7-.8.5-231-167.7 88-270.4.3-.9" class="x"/><path d="m200.4-42.7-90.7 278.6L347 408.1m0 2.9L107 236.8 198.7-45" class="x"/><path d="m194.6-50.9-94.2 289.4L347 417.4m0 2.6L98.6 239.8l-.6-.4 94.9-291.6.2-.7" class="x"/><path d="M188.9-58.2 91.2 242.1 347 427.7m0 2.3L89.5 243.2l-.5-.4 98.4-302.2.2-.6" class="x"/><path d="M183.2-66.4 81.9 244.7 347 437m.5 1.7-.5.3L80.5 245.7l-.5-.3L181.8-67.4l.2-.6" class="x"/><path d="m177.4-74.7-104.8 322 274.4 199m0 1.7L71.4 248.1l-.4-.3L176.3-75.5l.1-.5" class="x"/><path d="M171.7-82.9 63.3 249.9 347 455.7m.3 1.1-.3.2L62.3 250.6l-.3-.2 108.8-334 .1-.4" class="x"/><path d="M165.9-91.2 54 253.2 347 466m.2.8-.2.2L53.2 253.7l-.2-.2L165.3-92" class="x"/><path d="m159.8-100-.1.2L44 256l.2.1L347 476l.2-.1m-.2-.6L44.7 255.8 160.2-99.4" class="x"/></svg>